<svg width="110" height="110" viewBox="0 0 110 110" fill="none" xmlns="http://www.w3.org/2000/svg">
<rect width="110" height="110" rx="55" fill="#2D4448" fill-opacity="0.03"/>
<path d="M85.9065 61.0432L80.5425 50.3153C80.4091 41.8641 76.6071 33.9579 70.065 28.5644C66.8261 25.8942 63.1345 24.0028 59.0932 22.9427C54.8492 21.8295 50.4511 21.7016 46.0202 22.5624C34.6658 24.7682 25.6197 33.901 23.5101 45.2881C22.025 53.3042 23.808 61.2772 28.531 67.7384C32.3867 73.0128 34.5101 79.3413 34.5101 85.558C34.5101 86.6174 35.3689 87.4761 36.4282 87.4761H63.2825C64.3419 87.4761 65.1878 86.6172 65.1878 85.558V80.5452C65.1878 79.9952 65.6481 79.5477 66.1981 79.5477H74.7915C77.9645 79.5477 80.5332 76.9663 80.5332 73.7932V68.0388H81.5702C83.2577 68.0388 84.8076 67.1817 85.6949 65.7462C86.5822 64.3107 86.6611 62.5526 85.9065 61.0432ZM82.4314 63.7295C82.3435 63.8717 82.0849 64.2025 81.5829 64.2025H78.6278C77.5684 64.2025 76.7097 65.0614 76.7097 66.1206V73.7932C76.7097 74.851 75.8492 75.7114 74.7916 75.7114H66.1982C63.5329 75.7114 61.3645 77.8797 61.3645 80.5451V83.6397H38.2876C37.8964 77.2461 35.5665 70.8619 31.6281 65.4742C27.5348 59.8746 25.9914 52.9538 27.2822 45.9868C29.1071 36.1363 36.9315 28.2361 46.7517 26.3283C54.2449 24.8723 61.8529 26.7664 67.6245 31.5245C73.3982 36.2845 76.7096 43.3012 76.7096 50.7754C76.7096 51.0733 76.7789 51.3669 76.912 51.6333L82.4749 62.759C82.6996 63.2081 82.5194 63.5873 82.4314 63.7295Z" fill="#1B3D3C"/>
<path d="M48.9227 41.8672C45.1927 42.8667 42.0979 45.9018 41.0387 49.5993C39.8893 53.6112 40.8582 57.7877 43.6306 60.7719C45.361 62.6345 46.3141 64.8932 46.3141 67.1318V70.2193C46.3141 73.3923 48.8956 75.9737 52.0686 75.9737C55.2416 75.9737 57.8102 73.3923 57.8103 70.2193V67.1446C57.8103 64.3506 59.3551 62.0571 60.6406 60.6251C62.5346 58.515 63.5776 55.7914 63.5776 52.9557C63.5775 45.447 56.4959 39.8378 48.9227 41.8672ZM53.9867 70.2194C53.9867 71.2771 53.1262 72.1375 52.0686 72.1375C51.011 72.1375 50.1377 71.277 50.1377 70.2194V68.3013H53.9869L53.9867 70.2194ZM57.7855 58.0627C56.0041 60.0474 54.8249 62.236 54.2997 64.4776H49.848C49.3319 62.2051 48.1661 60.0175 46.441 58.1608C44.5639 56.1402 43.9389 53.4048 44.7266 50.6558C45.4226 48.226 47.4594 46.2307 49.9156 45.5727C55.0533 44.1962 59.7412 47.974 59.7412 52.9559C59.7412 54.844 59.0467 56.6578 57.7855 58.0627Z" fill="#1B3D3C"/>
<path d="M52.0685 29.9375C51.0091 29.9375 50.1504 30.7964 50.1504 31.8556V35.692C50.1504 36.7514 51.0093 37.6101 52.0685 37.6101C53.1278 37.6101 53.9738 36.7512 53.9738 35.692V31.8556C53.974 30.7964 53.1279 29.9375 52.0685 29.9375Z" fill="#1B3D3C"/>
<path d="M36.7251 49.1318H32.8888C31.8294 49.1318 30.9707 49.9779 30.9707 51.0372C30.9707 52.0964 31.8296 52.9553 32.8888 52.9553H36.7252C37.7846 52.9553 38.6433 52.0964 38.6433 51.0372C38.6433 49.9779 37.7846 49.1318 36.7251 49.1318Z" fill="#1B3D3C"/>
<path d="M71.2506 49.1328H67.4142C66.3548 49.1328 65.4961 49.9789 65.4961 51.0381C65.4961 52.0974 66.355 52.9563 67.4142 52.9563H71.2506C72.31 52.9563 73.1687 52.0974 73.1687 51.0381C73.1687 49.9789 72.31 49.1328 71.2506 49.1328Z" fill="#1B3D3C"/>
<path d="M66.9891 36.1175C66.2401 35.3684 65.0256 35.3684 64.2765 36.1175L61.5638 38.8302C60.8147 39.5793 60.8147 40.7937 61.5638 41.5428C62.3128 42.2918 63.5273 42.292 64.2765 41.5428L66.9891 38.8302C67.7383 38.081 67.7383 36.8667 66.9891 36.1175Z" fill="#1B3D3C"/>
<path d="M42.5751 38.8302L39.8624 36.1175C39.1134 35.3684 37.8989 35.3684 37.1497 36.1175C36.4006 36.8667 36.4006 38.081 37.1497 38.8302L39.8624 41.5428C40.6114 42.2918 41.826 42.292 42.5751 41.5428C43.3242 40.7937 43.3242 39.5793 42.5751 38.8302Z" fill="#1B3D3C"/>
</svg>
