<svg width="92" height="91" viewBox="0 0 92 91" fill="none" xmlns="http://www.w3.org/2000/svg">
<path d="M22.418 0.00380611C18.8555 0.00380611 15.9414 2.91791 15.9414 6.48041V9.07421H9.9102C4.4414 9.07421 0 13.5273 0 18.9961V80.1291C0 85.5979 4.4414 90.0549 9.9102 90.0549L81.5082 90.051C86.977 90.051 91.4301 85.5979 91.4301 80.1252V18.9962C91.4301 13.5274 86.977 9.0743 81.5082 9.0743H75.4887L75.4848 6.4766C75.4848 2.9141 72.559 0 68.9965 0C65.434 0 62.5238 2.9141 62.5238 6.4766L62.5277 9.0743H28.8947V6.4766C28.8947 2.9141 25.9806 0 22.4181 0L22.418 0.00380611ZM22.418 2.86321C24.4492 2.86321 26.0352 4.44911 26.0352 6.48041V15.0624C26.0352 17.0936 24.4493 18.6796 22.418 18.6796C20.3867 18.6796 18.8008 17.0898 18.8008 15.0624V6.48041C18.8008 4.44921 20.3867 2.86321 22.418 2.86321ZM68.996 2.86321C71.0272 2.86321 72.6249 4.44911 72.6249 6.48041V15.0624C72.6249 17.0936 71.0272 18.6796 68.996 18.6796C66.9648 18.6796 65.3788 17.0898 65.3788 15.0624L65.3827 10.5077V6.47651C65.3827 4.44531 66.9686 2.85931 68.9999 2.85931L68.996 2.86321ZM9.91 11.9296H15.9412V15.0585C15.9412 18.621 18.8553 21.5351 22.4178 21.5351C25.9803 21.5351 28.8944 18.621 28.8944 15.0585V11.9296H62.5234V15.0585C62.5234 18.621 65.4336 21.5351 68.9961 21.5351C72.5586 21.5351 75.4844 18.621 75.4844 15.0585V11.9296H81.5039C85.4414 11.9296 88.5703 15.0585 88.5703 18.996V28.0976H2.8593V18.996C2.8593 15.0585 5.9765 11.9296 9.914 11.9296H9.91ZM2.8553 30.9526H88.5703V80.1286C88.5703 84.0661 85.4414 87.195 81.5039 87.195L9.9099 87.1911C5.9724 87.1911 2.8552 84.0622 2.8552 80.1247L2.8553 30.9526ZM18.5583 38.6831C16.1364 38.6831 14.1403 40.6675 14.1403 43.0893V51.4096C14.1403 53.8315 16.1403 55.8198 18.5583 55.8198H26.8903C29.3122 55.8198 31.3083 53.8315 31.3083 51.4096V43.0893C31.3083 40.6674 29.3122 38.6831 26.8903 38.6831H18.5583ZM41.5463 38.6831C39.1244 38.6831 37.1283 40.6675 37.1283 43.0893V51.4096C37.1283 53.8315 39.1283 55.8198 41.5463 55.8198H49.8783C52.3002 55.8198 54.2963 53.8315 54.2963 51.4096V43.0893C54.2963 40.6674 52.3002 38.6831 49.8783 38.6831H41.5463ZM64.5263 38.6831C62.1044 38.6831 60.1161 40.6675 60.1161 43.0893V51.4096C60.1161 53.8315 62.1044 55.8198 64.5263 55.8198H72.8661C75.288 55.8198 77.2763 53.8315 77.2763 51.4096V43.0893C77.2763 40.6674 75.288 38.6831 72.8661 38.6831H64.5263ZM18.5613 41.5425H26.8933C27.7839 41.5425 28.4519 42.2066 28.4519 43.0894V51.4097C28.4519 52.2925 27.7839 52.9605 26.8933 52.9605H18.5613C17.6707 52.9605 16.9988 52.2925 16.9988 51.4097V43.0894C16.9988 42.2066 17.6707 41.5425 18.5613 41.5425ZM41.5493 41.5425H49.8813C50.7719 41.5425 51.4399 42.2066 51.4399 43.0894V51.4097C51.4399 52.2925 50.7719 52.9605 49.8813 52.9605H41.5493C40.6587 52.9605 39.9907 52.2925 39.9907 51.4097L39.9868 43.0894C39.9868 42.2066 40.6548 41.5425 41.5454 41.5425H41.5493ZM64.5293 41.5425H72.8691C73.7597 41.5425 74.4316 42.2066 74.4316 43.0894V51.4097C74.4316 52.2925 73.7597 52.9605 72.8691 52.9605H64.5293C63.6387 52.9605 62.9785 52.2925 62.9785 51.4097L62.9746 43.0894C62.9746 42.2066 63.6348 41.5425 64.5254 41.5425H64.5293ZM18.5603 61.7145C16.1384 61.7145 14.1423 63.7145 14.1423 66.1325V74.4411C14.1423 76.863 16.1423 78.8513 18.5603 78.8513H26.8923C29.3142 78.8513 31.3103 76.863 31.3103 74.4411V66.1325C31.3103 63.7106 29.3142 61.7145 26.8923 61.7145H18.5603ZM41.5483 61.7145C39.1264 61.7145 37.1303 63.7145 37.1303 66.1325V74.4411C37.1303 76.863 39.1303 78.8513 41.5483 78.8513H49.8803C52.3022 78.8513 54.2983 76.863 54.2983 74.4411V66.1325C54.2983 63.7106 52.3022 61.7145 49.8803 61.7145H41.5483ZM64.5283 61.7145C62.1064 61.7145 60.1181 63.7145 60.1181 66.1325V74.4411C60.1181 76.863 62.1064 78.8513 64.5283 78.8513H72.8681C75.29 78.8513 77.2783 76.863 77.2783 74.4411V66.1325C77.2783 63.7106 75.29 61.7145 72.8681 61.7145H64.5283ZM18.5593 64.57H26.8913C27.7819 64.57 28.4499 65.2497 28.4499 66.1325V74.4411C28.4499 75.3239 27.7819 75.9997 26.8913 75.9997H18.5593C17.6687 75.9997 16.9968 75.3239 16.9968 74.4411V66.1325C16.9968 65.2497 17.6687 64.57 18.5593 64.57ZM41.5473 64.57H49.8793C50.7699 64.57 51.4379 65.2497 51.4379 66.1325V74.4411C51.4379 75.3239 50.7699 75.9997 49.8793 75.9997L41.5473 76.0036C40.6567 76.0036 39.9887 75.3278 39.9887 74.445V66.1364C39.9887 65.2536 40.6567 64.5739 41.5473 64.5739V64.57ZM64.5273 64.57H72.8671C73.7577 64.57 74.4296 65.2497 74.4296 66.1325V74.4411C74.4296 75.3239 73.7577 75.9997 72.8671 75.9997H64.5273C63.6367 75.9997 62.9765 75.3239 62.9765 74.4411V66.1325C62.9765 65.2497 63.6367 64.57 64.5273 64.57Z" fill="white"/>
</svg>
